<svg width="44" height="44" viewBox="0 0 44 44" fill="none" xmlns="http://www.w3.org/2000/svg">
<path d="M37.2317 32.4643C40.6912 28.7097 40.3428 23.888 40.3318 23.833V9.16634C40.3318 8.68011 40.1387 8.2138 39.7949 7.86998C39.4511 7.52616 38.9847 7.33301 38.4985 7.33301H27.4985C25.4763 7.33301 23.8318 8.97751 23.8318 10.9997V23.833C23.8318 24.3192 24.025 24.7856 24.3688 25.1294C24.7126 25.4732 25.1789 25.6663 25.6652 25.6663H31.3082C31.2694 26.5727 30.9986 27.454 30.5217 28.2257C29.5903 29.6942 27.8358 30.697 25.304 31.203L23.8318 31.4963V36.6663H25.6652C30.7673 36.6663 34.6595 35.2528 37.2317 32.4643ZM17.0522 32.4643C20.5135 28.7097 20.1633 23.888 20.1523 23.833V9.16634C20.1523 8.68011 19.9592 8.2138 19.6154 7.86998C19.2716 7.52616 18.8052 7.33301 18.319 7.33301H7.31901C5.29684 7.33301 3.65234 8.97751 3.65234 10.9997V23.833C3.65234 24.3192 3.8455 24.7856 4.18931 25.1294C4.53313 25.4732 4.99945 25.6663 5.48568 25.6663H11.1287C11.0899 26.5727 10.8191 27.454 10.3422 28.2257C9.41084 29.6942 7.65634 30.697 5.12451 31.203L3.65234 31.4963V36.6663H5.48568C10.5878 36.6663 14.48 35.2528 17.0522 32.4643Z" fill="#7CD5DC"/>
</svg>
