<svg width="140" height="26" viewBox="0 0 140 26" fill="none" xmlns="http://www.w3.org/2000/svg">
<path d="M27.1158 9.91737H16.7417L13.5579 0L10.3741 9.91737H0L8.48555 16.0195L5.18081 25.9368L13.5579 19.7907L21.935 25.9368L18.624 16.0195L27.1158 9.91737Z" fill="#FBD24C"/>
<path d="M55.1158 9.91737H44.7417L41.5579 0L38.3741 9.91737H28L36.4855 16.0195L33.1808 25.9368L41.5579 19.7907L49.935 25.9368L46.624 16.0195L55.1158 9.91737Z" fill="#FBD24C"/>
<path d="M83.1158 9.91737H72.7417L69.5579 0L66.374 9.91737H56L64.4855 16.0195L61.1808 25.9368L69.5579 19.7907L77.935 25.9368L74.624 16.0195L83.1158 9.91737Z" fill="#FBD24C"/>
<path d="M111.116 9.91737H100.742L97.5579 0L94.374 9.91737H84L92.4855 16.0195L89.1808 25.9368L97.5579 19.7907L105.935 25.9368L102.624 16.0195L111.116 9.91737Z" fill="#FBD24C"/>
<path d="M139.116 9.91737H128.742L125.558 0L122.374 9.91737H112L120.486 16.0195L117.181 25.9368L125.558 19.7907L133.935 25.9368L130.624 16.0195L139.116 9.91737Z" fill="#FBD24C"/>
</svg>
