<svg width="84" height="85" viewBox="0 0 84 85" fill="none" xmlns="http://www.w3.org/2000/svg">
<path d="M82.6875 46.7376V38.8758C82.6875 38.3245 82.3462 37.8389 81.8344 37.642C81.3225 37.4451 80.745 37.5895 80.3906 38.0095L63.5381 57.2639C63.2756 53.9564 62.8425 50.7801 62.2256 47.7745C61.0181 41.842 57.5794 27.1289 55.9125 20.0414C59.2069 20.842 65.3887 22.1151 67.8956 21.1045C69.8119 20.3301 73.29 24.4251 75.0488 27.4308C75.285 27.8376 75.7181 28.087 76.1775 28.087C76.2956 28.087 76.4137 28.0739 76.5319 28.0345C77.1094 27.877 77.5031 27.352 77.49 26.7614C77.4638 22.732 77.0569 18.6633 74.3006 16.2745C72.1481 14.4108 68.8537 13.8201 64.2337 14.437C62.7769 14.6339 60.48 15.2114 58.4325 15.7626C61.2412 14.0958 64.4044 11.9301 65.2969 10.1451C66.2025 8.30764 71.5312 9.02951 74.8519 10.1058C75.4163 10.2895 76.0331 10.0664 76.3613 9.56764C76.6894 9.06889 76.6369 8.41264 76.23 7.97951C73.5525 5.01326 70.5731 2.28326 66.9769 2.28326C66.9375 2.28326 66.9112 2.28326 66.8719 2.28326C64.0238 2.32264 61.1756 4.06826 58.1306 7.62514C56.5031 9.54139 53.7206 13.8201 52.6969 15.6051C52.3294 16.2614 52.1062 16.6158 52.0669 16.7601C50.3737 15.3558 46.6463 12.3501 44.5594 11.1033C40.5563 8.71451 37.2881 7.96639 34.5713 8.84576C31.0931 9.96139 29.1375 13.5445 27.5231 17.2458C27.2869 17.797 27.4444 18.427 27.9169 18.7945C28.3894 19.162 29.0325 19.1751 29.5181 18.8208C32.3137 16.747 37.1306 14.3451 38.5875 15.7889C39.6637 16.8651 42.0788 17.7183 44.5856 18.3745C43.4306 18.4795 42.3675 18.6108 41.5669 18.7683C36.9863 19.6608 34.0594 21.3014 32.6287 23.7558C30.7913 26.9058 31.71 30.8826 32.9831 34.7151C33.1669 35.2533 33.6656 35.6076 34.23 35.6076C34.2562 35.6076 34.2825 35.6076 34.3088 35.6076C34.8994 35.5683 35.3981 35.1483 35.5163 34.5576C36.2119 31.1451 38.1937 26.1314 40.2412 26.2495C42.735 26.3808 47.565 23.6639 50.5444 21.8133C51.0825 28.3101 52.395 44.6901 52.5788 49.4283C52.71 52.867 52.0275 56.9751 50.5969 61.6345H15.1069C14.6213 61.6345 14.175 61.9101 13.9388 62.3433L8.70188 72.1608C8.47875 72.5676 8.49188 73.0664 8.72813 73.4601C8.96438 73.8539 9.3975 74.1033 9.85688 74.1033H23.9662L20.5669 81.8208C20.3831 82.2276 20.4225 82.7001 20.6719 83.0676C20.9212 83.4351 21.3281 83.6583 21.7744 83.6583H27.1688C27.6938 83.6583 28.1531 83.3564 28.3763 82.8708L32.2481 74.0901H45.5175C43.3125 78.5658 41.4225 81.6108 41.3963 81.637C41.1469 82.0439 41.1338 82.5558 41.3569 82.9758C41.5931 83.3958 42.0262 83.6583 42.5119 83.6583H61.215C61.845 83.6583 62.3962 83.212 62.5012 82.582C62.5275 82.4376 63.1181 79.1826 63.5119 74.1033H67.2919L71.1637 82.8839C71.3737 83.3564 71.8463 83.6714 72.3712 83.6714H77.7656C78.2119 83.6714 78.6188 83.4483 78.8681 83.0808C79.1175 82.7133 79.1437 82.2408 78.9731 81.8339L75.5738 74.1164H81.4013C82.1231 74.1164 82.7138 73.5258 82.7138 72.8039V68.0133C82.7138 67.2914 82.1231 66.7008 81.4013 66.7008H65.9794L82.3988 47.5908C82.6087 47.3545 82.7138 47.0526 82.7138 46.7376H82.6875ZM64.575 17.0489C68.4075 16.5239 71.0325 16.9176 72.5681 18.2695C73.6181 19.1883 74.1956 20.5926 74.5106 22.2201C72.8438 20.2908 70.6256 18.3876 68.3681 18.3876C67.8825 18.3876 67.3969 18.4795 66.9112 18.6764C65.8087 19.1226 62.7506 18.7683 59.64 18.1645C61.4512 17.6789 63.3675 17.2195 64.575 17.0489ZM60.1125 9.33139C62.6325 6.39139 64.8506 4.94764 66.885 4.90826C68.2631 4.88201 69.6413 5.55139 70.9669 6.56201C67.8956 6.16826 64.2337 6.33889 62.9212 8.97701C62.3962 10.0401 59.8762 11.812 57.1594 13.4395C58.1963 11.8776 59.3119 10.2501 60.0994 9.31826L60.1125 9.33139ZM37.275 12.7439C35.5687 12.7439 33.6787 13.4264 32.0381 14.227C32.9569 12.8489 34.0462 11.7726 35.3719 11.3526C37.3275 10.7226 39.8869 11.3789 43.2075 13.3608C44.2575 13.9908 45.8325 15.1589 47.3156 16.3139C44.2181 15.6445 41.265 14.7783 40.425 13.9383C39.5588 13.072 38.4562 12.7439 37.2619 12.7439H37.275ZM40.3725 23.6376C37.4194 23.4801 35.4769 26.5776 34.3219 29.452C34.0856 27.8114 34.1775 26.2889 34.8862 25.0814C35.9231 23.3095 38.2725 22.0889 42.0656 21.3539C43.2731 21.1176 45.2288 20.947 47.0925 20.8158C44.3494 22.3908 41.58 23.6901 40.3725 23.6376ZM54.3769 57.4739C55.5844 57.4739 56.595 57.6051 57.3956 57.8414C57.5269 57.8808 57.645 57.8939 57.7762 57.8939C58.3406 57.8939 58.8656 57.5264 59.0363 56.962C59.2463 56.2664 58.8525 55.5314 58.1569 55.3214C57.2381 55.0458 56.1225 54.8883 54.8494 54.8489C55.1381 52.8801 55.2562 51.0426 55.1906 49.3364C54.9937 44.0601 53.4581 25.2258 53.0381 20.1464C53.1037 20.0808 53.1562 20.0151 53.2088 19.9495C54.7181 26.3808 58.065 40.7001 59.4694 47.3283C59.1675 47.2889 58.8787 47.2364 58.6425 47.1708C57.9338 46.9608 57.2119 47.3545 57.0019 48.0501C56.7919 48.7458 57.1856 49.4808 57.8812 49.6908C58.4719 49.8614 59.1937 49.9533 59.9681 49.9926C60.5325 53.182 60.9131 56.5551 61.0838 60.0595L59.6925 61.6476H53.3269C53.7469 60.2039 54.1012 58.8126 54.3769 57.4739ZM15.8944 64.2726H59.5219L60.8738 66.7008H14.6475L15.9075 64.2726H15.8944ZM26.2894 81.0464H23.7563L26.8144 74.1164H29.3475L26.2894 81.0464ZM60.7162 75.6783C59.2069 75.8883 56.2406 76.177 54.2062 75.5601C53.4975 75.3501 52.7756 75.7439 52.5656 76.4395C52.3556 77.1351 52.7494 77.8701 53.445 78.0801C54.6394 78.4345 56.0306 78.5526 57.3431 78.5526C58.485 78.5526 59.5744 78.4608 60.4275 78.3689C60.2962 79.4976 60.165 80.4164 60.0731 81.0464H44.7825C45.6881 79.4714 47.0006 77.0433 48.405 74.1164H60.8475C60.8081 74.6676 60.7556 75.1795 60.7162 75.6783ZM75.7181 81.0464H73.185L70.1269 74.1164H72.66L75.7181 81.0464ZM80.0494 71.4914H12.075L13.2563 69.3258H80.0625V71.4914H80.0494ZM80.0494 46.252L63.315 65.7295L61.8713 63.1308L80.0494 42.367V46.252ZM16.8787 12.6389C16.8787 9.76451 14.5294 7.41514 11.655 7.41514C8.78062 7.41514 6.43125 9.76451 6.43125 12.6389C6.43125 15.5133 8.78062 17.8626 11.655 17.8626C14.5294 17.8626 16.8787 15.5133 16.8787 12.6389ZM9.05625 12.6389C9.05625 11.2083 10.2244 10.0401 11.655 10.0401C13.0856 10.0401 14.2537 11.2083 14.2537 12.6389C14.2537 14.0695 13.0856 15.2376 11.655 15.2376C10.2244 15.2376 9.05625 14.0695 9.05625 12.6389ZM10.3425 5.23639V3.60889C10.3425 2.88701 10.9331 2.29639 11.655 2.29639C12.3769 2.29639 12.9675 2.88701 12.9675 3.60889V5.23639C12.9675 5.95826 12.3769 6.54889 11.655 6.54889C10.9331 6.54889 10.3425 5.95826 10.3425 5.23639ZM15.96 8.33389C15.4481 7.82201 15.4481 6.99514 15.96 6.48326L17.115 5.34139C17.6269 4.82951 18.4538 4.82951 18.9656 5.34139C19.4775 5.85326 19.4775 6.68014 18.9656 7.19201L17.8106 8.33389C17.5481 8.58326 17.22 8.71451 16.8787 8.71451C16.5375 8.71451 16.2094 8.58326 15.9469 8.33389H15.96ZM19.0575 11.3264H20.685C21.4069 11.3264 21.9975 11.917 21.9975 12.6389C21.9975 13.3608 21.4069 13.9514 20.685 13.9514H19.0575C18.3356 13.9514 17.745 13.3608 17.745 12.6389C17.745 11.917 18.3356 11.3264 19.0575 11.3264ZM18.9656 18.0989C19.4775 18.6108 19.4775 19.4376 18.9656 19.9495C18.7031 20.212 18.375 20.3301 18.0338 20.3301C17.6925 20.3301 17.3644 20.1989 17.1019 19.9495L15.9469 18.7945C15.435 18.2826 15.435 17.4558 15.9469 16.9439C16.4587 16.432 17.2856 16.432 17.7975 16.9439L18.9525 18.0989H18.9656ZM11.655 18.7289C12.3769 18.7289 12.9675 19.3195 12.9675 20.0414V21.6689C12.9675 22.3908 12.3769 22.9814 11.655 22.9814C10.9331 22.9814 10.3425 22.3908 10.3425 21.6689V20.0414C10.3425 19.3195 10.9331 18.7289 11.655 18.7289ZM7.35 16.9439C7.86188 17.4558 7.86188 18.2826 7.35 18.7945L6.195 19.9495C5.9325 20.212 5.60438 20.3301 5.26313 20.3301C4.92188 20.3301 4.59375 20.1989 4.33125 19.9495C3.81938 19.4376 3.81938 18.6108 4.33125 18.0989L5.48625 16.9439C5.99812 16.432 6.825 16.432 7.33687 16.9439H7.35ZM4.2525 13.9514H2.625C1.90312 13.9514 1.3125 13.3608 1.3125 12.6389C1.3125 11.917 1.90312 11.3264 2.625 11.3264H4.2525C4.97438 11.3264 5.565 11.917 5.565 12.6389C5.565 13.3608 4.97438 13.9514 4.2525 13.9514ZM4.34437 7.17889C3.8325 6.66701 3.8325 5.84014 4.34437 5.32826C4.85625 4.81639 5.68312 4.81639 6.195 5.32826L7.35 6.47014C7.86188 6.98201 7.86188 7.80889 7.35 8.32076C7.0875 8.58326 6.75937 8.70139 6.41812 8.70139C6.07687 8.70139 5.74875 8.57014 5.48625 8.32076L4.33125 7.17889H4.34437Z" fill="#FBD24C"/>
</svg>
