<svg width="84" height="85" viewBox="0 0 84 85" fill="none" xmlns="http://www.w3.org/2000/svg">
<path d="M81.4537 31.1845C80.1805 28.2445 78.6055 25.4095 75.7968 24.5039C74.7862 24.1758 73.6837 24.1364 72.4762 24.3726V17.2983C72.4762 13.1508 69.1031 9.76451 64.9424 9.76451H58.0912V6.52264C58.0912 4.19951 56.2012 2.29639 53.8649 2.29639H51.6993C49.3762 2.29639 47.473 4.18639 47.473 6.52264V9.76451H26.8274V6.52264C26.8274 4.19951 24.9374 2.29639 22.6012 2.29639H20.4355C18.1124 2.29639 16.2093 4.18639 16.2093 6.52264V9.76451H8.93805C4.79055 9.76451 1.4043 13.1376 1.4043 17.2983V65.8476C1.4043 69.9951 4.77742 73.3814 8.93805 73.3814H52.8018C53.0774 78.3951 53.6943 81.8339 53.7468 82.1095C53.8649 82.7264 54.403 83.1858 55.033 83.1858H69.5624C70.0349 83.1858 70.4812 82.9233 70.7174 82.5033C70.9537 82.0833 70.9405 81.5714 70.678 81.1645C70.5862 81.0201 61.648 66.5958 62.0287 56.2926C62.1599 52.7358 63.1312 40.6608 63.5774 35.332C65.4149 36.4476 67.948 37.8389 69.8643 38.3508V65.8345C69.8643 68.3939 67.8824 70.4808 65.3887 70.6908C65.743 71.557 66.1237 72.397 66.4912 73.1976C69.9168 72.4889 72.4893 69.457 72.4893 65.8214V39.3351C72.3974 39.2301 74.3005 42.787 74.7074 44.8083C74.8255 45.3858 75.3243 45.8189 75.9149 45.8583C75.9412 45.8583 75.9674 45.8583 75.9937 45.8583C76.5581 45.8583 77.0568 45.5039 77.2405 44.9658C78.2512 41.9339 78.9862 38.7708 77.4899 36.2114C76.5843 34.6495 74.9174 33.5076 72.4893 32.7464V30.6333C72.5943 30.5545 72.7255 30.4626 72.8174 30.3839C73.7624 29.4389 77.3587 31.1845 79.4718 32.7595C79.9443 33.1139 80.6005 33.1008 81.0731 32.7333C81.5324 32.3658 81.703 31.7226 81.4537 31.1845ZM50.1243 6.52264C50.1243 5.64326 50.8462 4.92139 51.7255 4.92139H53.8912C54.7705 4.92139 55.4924 5.64326 55.4924 6.52264V12.1139C55.4924 12.9933 54.7705 13.7151 53.8912 13.7151H51.7255C50.8462 13.7151 50.1243 12.9933 50.1243 12.1139V6.52264ZM18.8737 6.52264C18.8737 5.64326 19.5955 4.92139 20.4749 4.92139H22.6405C23.5199 4.92139 24.2418 5.64326 24.2418 6.52264V12.1139C24.2418 12.9933 23.5199 13.7151 22.6405 13.7151H20.4749C19.5955 13.7151 18.8737 12.9933 18.8737 12.1139V6.52264ZM4.0293 17.2851C4.0293 14.5814 6.2343 12.3764 8.93805 12.3764H16.2618C16.4062 14.5683 18.2174 16.327 20.4618 16.327H22.6274C24.8587 16.327 26.683 14.5814 26.8274 12.3764H47.5255C47.6699 14.5683 49.4943 16.327 51.7255 16.327H53.8912C56.1224 16.327 57.9468 14.5814 58.0912 12.3764H64.9687C67.6724 12.3764 69.8774 14.5814 69.8774 17.2851V22.3383H56.4505C54.4687 20.3826 52.5655 19.4114 50.6493 19.372C48.3918 19.3458 46.4362 20.6451 44.6643 22.3383H4.0293V17.2851ZM57.1724 27.3914C55.5318 26.3414 54.2455 25.3439 53.9437 24.7533C53.1037 23.0733 51.2137 22.5745 49.258 22.5745C49.0349 22.5745 48.8118 22.5745 48.5887 22.5876C49.258 22.2201 49.993 21.997 50.5968 22.0101C52.093 22.0364 53.7468 23.1258 55.6499 25.3439C56.0699 25.8426 56.608 26.5908 57.1724 27.4045V27.3914ZM53.9568 54.9408C52.8149 60.532 52.5918 66.1101 52.6968 70.7564H8.93805C6.2343 70.7564 4.0293 68.5514 4.0293 65.8476V24.9764H42.8399C42.8662 25.1601 42.9187 25.3439 43.0237 25.5014C43.3518 26.0001 43.9555 26.2233 44.533 26.0395C47.0399 25.2258 51.0168 24.7139 51.6074 25.9214C52.1455 27.0108 53.7205 28.2708 55.4268 29.3864C54.4162 29.137 53.4449 28.927 52.7362 28.8351C49.048 28.3364 46.423 28.822 44.6774 30.3314C42.4462 32.2608 42.118 35.4895 42.0918 38.692C42.0918 39.2826 42.4855 39.8076 43.0499 39.9651C43.168 39.9914 43.2862 40.0176 43.4043 40.0176C43.8637 40.0176 44.2968 39.7814 44.533 39.3745C45.8718 37.1039 48.4705 34.0851 49.7305 34.5839C51.6337 35.3583 56.083 34.5051 58.7474 33.8751C57.4218 39.532 54.8624 50.4783 53.9568 54.967V54.9408ZM54.8755 31.9458C52.9462 32.2608 51.3318 32.3658 50.7149 32.1164C48.7724 31.342 46.8299 32.5233 45.2812 34.072C45.5305 33.3501 45.8849 32.7464 46.3968 32.3001C47.2105 31.6045 48.4312 31.2501 50.1112 31.2501C50.7937 31.2501 51.5549 31.3026 52.3818 31.4208C53.0249 31.5126 53.9305 31.7095 54.8887 31.9458H54.8755ZM56.1618 80.5476C56.083 80.0358 55.9912 79.3533 55.8993 78.5264C56.5424 78.6051 57.3693 78.6708 58.2618 78.6708C59.2724 78.6708 60.3355 78.5789 61.2543 78.3033C61.9499 78.0933 62.3437 77.3583 62.1337 76.6626C61.9237 75.967 61.2018 75.5733 60.493 75.7833C59.0624 76.2164 56.8312 76.0195 55.6237 75.8358C55.558 75.0745 55.5055 74.2345 55.453 73.3551H63.6693C64.9949 76.3345 66.3468 78.8808 67.2787 80.5345H56.1618V80.5476ZM62.5668 70.7433H55.348C55.348 70.7433 55.2168 61.9233 56.5293 55.4526C57.343 51.4495 59.4693 42.262 60.8605 36.3295C60.388 42.1176 59.5349 52.7751 59.4168 56.1876C59.3249 58.642 59.7055 61.267 60.3487 63.8789C59.5612 63.9051 58.6818 63.8133 58.1437 63.6951C57.4349 63.5376 56.7393 63.9839 56.5818 64.6926C56.4243 65.4014 56.8705 66.097 57.5793 66.2545C57.763 66.2939 58.8393 66.517 60.073 66.517C60.4012 66.517 60.7293 66.4908 61.0574 66.4514C61.5037 67.9214 62.0287 69.352 62.5668 70.7301V70.7433ZM62.2518 30.4233C62.1074 30.187 60.2305 27.1026 58.6818 24.9501H69.8643V25.1864C69.208 25.4751 68.5256 25.8295 67.8037 26.2495C66.2943 27.1551 63.6693 29.242 62.2387 30.4101L62.2518 30.4233ZM75.2324 37.5108C75.5737 38.1014 75.718 38.7839 75.718 39.5451C74.7862 37.6551 73.8018 36.2901 71.3868 35.9358C71.3212 35.9358 71.2555 35.9358 71.203 35.9358C70.5468 35.9751 69.0374 35.3451 67.318 34.4264C68.3024 34.5051 69.2212 34.6101 69.8512 34.7414C72.7124 35.3058 74.4712 36.1983 75.2324 37.4976V37.5108ZM70.9668 28.4939C70.4943 28.9664 68.9587 29.4914 67.0687 29.9639C67.8562 29.3733 68.6043 28.8351 69.1687 28.507C71.6755 27.0108 73.5918 26.512 75.0093 26.9714C75.6524 27.1814 76.2168 27.6014 76.7287 28.1658C74.7074 27.352 72.4499 27.0239 70.9668 28.507V28.4939Z" fill="#FBD24C"/>
</svg>
