<svg width="84" height="85" viewBox="0 0 84 85" fill="none" xmlns="http://www.w3.org/2000/svg">
<path d="M75.7314 47.1576C71.9121 47.1576 68.8014 49.8483 68.8014 53.1558C68.8014 55.0195 66.8721 56.5289 64.4964 56.5289C62.1208 56.5289 60.1914 55.0195 60.1914 53.1558C60.1914 51.0164 58.8789 49.1526 56.9364 48.0895C57.3827 46.6326 57.6189 45.097 57.6189 43.5351C57.6189 34.9251 50.6233 27.9295 42.0133 27.9295C33.4033 27.9295 26.3946 34.9251 26.3946 43.5351C26.3946 45.097 26.6308 46.6326 27.077 48.0895C25.1345 49.1526 23.8221 51.0164 23.8221 53.1558C23.8221 55.0195 21.8927 56.5289 19.5171 56.5289C17.1414 56.5289 15.2121 55.0195 15.2121 53.1558C15.2121 49.8483 12.1014 47.1576 8.28205 47.1576C4.46268 47.1576 1.35205 49.8483 1.35205 53.1558C1.35205 53.8776 1.94268 54.4683 2.66455 54.4683C3.38643 54.4683 3.97705 53.8776 3.97705 53.1558C3.97705 51.292 5.90643 49.7826 8.28205 49.7826C10.6577 49.7826 12.5871 51.292 12.5871 53.1558C12.5871 56.4633 15.6977 59.1539 19.5171 59.1539C23.3364 59.1539 26.4471 56.4633 26.4471 53.1558C26.4471 51.292 28.3764 49.7826 30.7521 49.7826C33.1277 49.7826 35.057 51.292 35.057 53.1558C35.057 56.4633 38.1677 59.1539 41.987 59.1539C45.8064 59.1539 48.9171 56.4633 48.9171 53.1558C48.9171 51.292 50.8464 49.7826 53.222 49.7826C55.5977 49.7826 57.5271 51.292 57.5271 53.1558C57.5271 56.4633 60.6377 59.1539 64.4571 59.1539C68.2764 59.1539 71.3871 56.4633 71.3871 53.1558C71.3871 51.292 73.3164 49.7826 75.692 49.7826C78.0677 49.7826 79.9971 51.292 79.9971 53.1558C79.9971 53.8776 80.5877 54.4683 81.3096 54.4683C82.0314 54.4683 82.6221 53.8776 82.6221 53.1558C82.6221 49.8483 79.5114 47.1576 75.692 47.1576H75.7314ZM46.3052 53.1558C46.3052 55.0195 44.3758 56.5289 42.0002 56.5289C39.6245 56.5289 37.6952 55.0195 37.6952 53.1558C37.6952 49.8483 34.5845 47.1576 30.7652 47.1576C30.3583 47.1576 29.9646 47.197 29.5708 47.2626C29.2033 46.0683 29.0196 44.8214 29.0196 43.5351C29.0196 36.382 34.847 30.5545 42.0133 30.5545C49.1795 30.5545 54.9939 36.382 54.9939 43.5351C54.9939 44.8214 54.8102 46.0683 54.4427 47.2626C54.0489 47.2101 53.6552 47.1576 53.2483 47.1576C49.4289 47.1576 46.3183 49.8483 46.3183 53.1558H46.3052ZM65.4283 68.6039C65.4283 69.3258 64.8377 69.9164 64.1158 69.9164C60.3489 69.9164 57.2777 67.2651 57.2777 63.997C57.2777 62.1858 55.3877 60.7026 53.0646 60.7026C50.7414 60.7026 48.8514 62.1858 48.8514 63.997C48.8514 67.2651 45.7802 69.9164 42.0133 69.9164C38.2464 69.9164 35.1752 67.2651 35.1752 63.997C35.1752 62.1858 33.2852 60.7026 30.962 60.7026C28.6389 60.7026 26.7489 62.1858 26.7489 63.997C26.7489 67.2651 23.6777 69.9164 19.9108 69.9164C19.1889 69.9164 18.5983 69.3258 18.5983 68.6039C18.5983 67.882 19.1889 67.2914 19.9108 67.2914C22.2339 67.2914 24.1239 65.8083 24.1239 63.997C24.1239 60.7289 27.1952 58.0776 30.962 58.0776C34.7289 58.0776 37.8002 60.7289 37.8002 63.997C37.8002 65.8083 39.6902 67.2914 42.0133 67.2914C44.3364 67.2914 46.2264 65.8083 46.2264 63.997C46.2264 60.7289 49.2977 58.0776 53.0646 58.0776C56.8314 58.0776 59.9027 60.7289 59.9027 63.997C59.9027 65.8083 61.7927 67.2914 64.1158 67.2914C64.8377 67.2914 65.4283 67.882 65.4283 68.6039ZM40.6877 23.2701V17.3639C40.6877 16.642 41.2783 16.0514 42.0002 16.0514C42.722 16.0514 43.3127 16.642 43.3127 17.3639V23.2701C43.3127 23.992 42.722 24.5826 42.0002 24.5826C41.2783 24.5826 40.6877 23.992 40.6877 23.2701ZM23.4283 25.6064C22.9164 25.0945 22.9164 24.2676 23.4283 23.7558C23.9402 23.2439 24.767 23.2439 25.2789 23.7558L29.4527 27.9295C29.9646 28.4414 29.9646 29.2683 29.4527 29.7801C29.1902 30.0426 28.862 30.1608 28.5208 30.1608C28.1796 30.1608 27.8514 30.0295 27.5889 29.7801L23.4152 25.6064H23.4283ZM15.7502 42.1045C15.7896 41.3826 16.4064 40.8314 17.1283 40.8708L23.0345 41.1858C23.7564 41.2251 24.3077 41.842 24.2683 42.5639C24.2289 43.2595 23.6514 43.8108 22.9558 43.8108C22.9296 43.8108 22.9033 43.8108 22.8771 43.8108L16.9708 43.4958C16.2489 43.4564 15.6977 42.8395 15.7371 42.1176L15.7502 42.1045ZM18.1652 32.4839C18.4671 31.8276 19.2546 31.5389 19.9108 31.8408L25.2789 34.3214C25.9352 34.6233 26.2239 35.4108 25.9221 36.067C25.6989 36.5526 25.2264 36.8283 24.7277 36.8283C24.5439 36.8283 24.3602 36.7889 24.1764 36.7101L18.8083 34.2295C18.1521 33.9276 17.8633 33.1401 18.1652 32.4839ZM32.2089 20.5533C31.9596 19.8708 32.3139 19.1226 32.9833 18.8733C33.6658 18.6239 34.4139 18.9783 34.6633 19.6476L36.6977 25.1995C36.947 25.882 36.5927 26.6301 35.9233 26.8795C35.7789 26.932 35.6214 26.9583 35.4771 26.9583C34.9389 26.9583 34.4402 26.6301 34.2433 26.092L32.2089 20.5401V20.5533ZM48.8777 25.7245L51.3583 20.3564C51.6602 19.7001 52.4477 19.4114 53.1039 19.7133C53.7602 20.0151 54.0489 20.8026 53.7471 21.4589L51.2664 26.827C51.0433 27.3126 50.5708 27.5883 50.0721 27.5883C49.8883 27.5883 49.7046 27.5489 49.5208 27.4701C48.8646 27.1683 48.5758 26.3808 48.8777 25.7245ZM59.4827 35.8045L65.0345 33.7701C65.717 33.5208 66.4652 33.8751 66.7146 34.5445C66.9639 35.227 66.6096 35.9751 65.9402 36.2245L60.3883 38.2589C60.2439 38.3114 60.0864 38.3376 59.9421 38.3376C59.4039 38.3376 58.9052 38.0095 58.7083 37.4714C58.4589 36.7889 58.8133 36.0408 59.4827 35.7914V35.8045ZM61.0577 40.9758H66.9639C67.6858 40.9758 68.2764 41.5664 68.2764 42.2883C68.2764 43.0101 67.6858 43.6008 66.9639 43.6008H61.0577C60.3358 43.6008 59.7452 43.0101 59.7452 42.2883C59.7452 41.5664 60.3358 40.9758 61.0577 40.9758ZM55.3221 30.0689C54.8102 29.557 54.8102 28.7301 55.3221 28.2183L59.4958 24.0445C60.0077 23.5326 60.8346 23.5326 61.3464 24.0445C61.8583 24.5564 61.8583 25.3833 61.3464 25.8951L57.1727 30.0689C56.9102 30.3314 56.5821 30.4495 56.2408 30.4495C55.8996 30.4495 55.5714 30.3183 55.3089 30.0689H55.3221Z" fill="#FBD24C"/>
</svg>
