<svg width="84" height="85" viewBox="0 0 84 85" fill="none" xmlns="http://www.w3.org/2000/svg">
<path d="M82.3595 79.1958C82.0707 78.8808 75.2457 71.4651 62.2388 76.8333C57.9338 78.6183 55.007 77.2139 49.6914 74.6545C48.5364 74.0901 47.2632 73.4864 45.8851 72.8695L54.797 58.9176C58.1307 53.6939 60.7689 48.1157 62.6326 42.3408C65.0082 35.1089 66.2157 27.5489 66.2157 19.8576C66.2157 16.8651 66.032 13.8201 65.6514 10.8145C65.5989 10.3683 65.3101 9.9745 64.9032 9.77763C64.4832 9.58075 64.0107 9.62013 63.6301 9.8695L62.8426 10.3814C54.1539 16.2089 46.6726 24.0182 41.2257 32.9826C39.2045 36.3164 37.472 39.8208 36.0151 43.4039C36.0414 42.6295 36.0545 41.8551 36.0545 41.0939C36.0545 38.4164 35.897 35.6733 35.582 32.9564C34.3876 22.4039 30.8176 12.0483 25.2395 3.01825C24.767 2.24388 23.4807 2.24388 23.0082 3.01825L22.5226 3.80575C16.9445 12.8358 13.4926 22.7714 12.2457 33.3107C11.5632 38.9808 11.5501 44.7295 12.2326 50.3995L14.5951 70.4283C7.36323 72.9876 2.21823 76.702 1.8376 76.9776C1.24698 77.4108 1.12886 78.2245 1.56198 78.8151C1.99511 79.3926 2.80885 79.5239 3.39948 79.0908C3.55698 78.9726 19.4907 67.462 34.4007 71.5045C40.6089 73.1845 45.0057 75.2976 48.5364 77.0039C53.9307 79.6026 57.8288 81.4795 63.2232 79.2483C74.432 74.6151 80.1414 80.6789 80.3776 80.9283C80.6401 81.217 80.9945 81.3614 81.362 81.3614C81.677 81.3614 81.992 81.2564 82.2414 81.0333C82.7795 80.5476 82.832 79.7208 82.3464 79.1826L82.3595 79.1958ZM38.6139 70.0476L43.7851 58.6945L46.6201 66.8583L43.4439 71.8326C41.9739 71.2289 40.3595 70.6383 38.6139 70.0608V70.0476ZM52.592 57.5133L48.4314 64.0364L45.3732 55.2426L56.2932 31.2764L60.0076 41.947C58.2226 47.3676 55.742 52.6045 52.6051 57.5264L52.592 57.5133ZM63.2757 13.282C63.4857 15.4739 63.5907 17.6789 63.5907 19.8708C63.5907 25.9214 62.8032 31.867 61.2807 37.642L57.6845 27.3126C57.5664 26.9714 57.3039 26.6957 56.9757 26.5514C56.6476 26.407 56.267 26.407 55.9389 26.5514L45.8195 30.817C50.5576 24.0051 56.5164 18.0201 63.2889 13.2951L63.2757 13.282ZM43.2732 34.7151L53.8389 30.2526L43.142 53.7464L34.4795 57.3951L34.8076 55.0851L36.6451 49.3233C38.2726 44.257 40.5039 39.3351 43.2732 34.702V34.7151ZM14.8445 50.0976C14.2145 44.7689 14.2014 39.3745 14.8182 34.0458L22.5751 25.6064V51.4233L15.8551 58.7208L14.8314 50.0976H14.8445ZM25.2132 25.5145L33.0226 33.6914C33.2851 36.172 33.4426 38.6657 33.4426 41.107C33.4426 44.362 33.2064 47.6695 32.747 50.9245L31.6576 58.6026L25.2132 51.8564V25.5276V25.5145ZM24.1239 6.247C28.1926 13.3345 31.0145 21.1833 32.4057 29.242L24.8457 21.3276C24.5964 21.0651 24.2157 20.9076 23.8876 20.9207C23.5201 20.9207 23.1789 21.0783 22.9295 21.3408L15.5007 29.4126C16.9707 21.2095 19.8582 13.4395 24.1239 6.23388V6.247ZM16.2751 62.1595L22.5882 55.2951V68.407C20.7114 68.6826 18.887 69.1026 17.1545 69.6145L16.2751 62.1595ZM25.2132 68.1183V55.6626L31.1851 61.9101L30.2926 68.1445C28.5732 67.987 26.8801 68.0001 25.2132 68.1183ZM32.9045 68.4989L34.0464 60.4401L41.5407 57.2901L36.0807 69.2733C35.7526 69.1814 35.4376 69.0764 35.0964 68.9845C34.3614 68.7876 33.6395 68.6301 32.9045 68.4989Z" fill="#FBD24C"/>
</svg>
