<svg width="350" height="319" viewBox="0 0 350 319" fill="none" xmlns="http://www.w3.org/2000/svg">
<path d="M269.82 95.77C269.82 97.07 269.79 98.37 269.73 99.66C267.71 150.62 225.75 191.31 174.29 191.31C141.38 191.31 112.35 174.66 95.18 149.33C85.22 134.64 79.23 117.03 78.79 98.06C78.78 97.3 78.76 96.54 78.76 95.78C78.76 43.02 121.53 0.25 174.29 0.25C219.43 0.25 257.26 31.56 267.24 73.64C268.93 80.75 269.83 88.16 269.83 95.78L269.82 95.77Z" fill="url(#paint0_radial_1_157)"/>
<path d="M118.52 41.68C118.48 41.78 118.45 41.87 118.43 41.97L118.21 42.24C118.31 42.06 118.42 41.86 118.53 41.68H118.52Z" fill="#88C923"/>
<path d="M142.24 109.42C158.974 109.42 172.54 95.8542 172.54 79.12C172.54 62.3858 158.974 48.82 142.24 48.82C125.506 48.82 111.94 62.3858 111.94 79.12C111.94 95.8542 125.506 109.42 142.24 109.42Z" fill="#FFD64F"/>
<path d="M269.82 95.7699C269.82 148.53 227.05 191.3 174.29 191.3C121.53 191.3 79.99 149.75 78.78 98.0499C192.69 110.79 174.74 66.21 267.23 73.63C268.92 80.74 269.82 88.1499 269.82 95.7699Z" fill="url(#paint1_linear_1_157)"/>
<path d="M269.73 99.65C267.71 150.61 225.75 191.3 174.29 191.3C141.38 191.3 112.35 174.65 95.1799 149.32C122.91 130.66 147.06 146.79 173.59 136.17C184.29 131.9 208.53 98.93 269.73 99.65Z" fill="url(#paint2_linear_1_157)"/>
<path d="M255.76 66.57L127.27 23.15C126.53 22.9 126.48 21.99 126.98 21.58C127.03 21.54 127.08 21.5 127.14 21.47C140.77 12.81 156.94 7.78003 174.29 7.78003C212.15 7.78003 244.43 31.69 256.82 65.24C256.83 65.25 256.85 65.28 256.86 65.3C256.89 65.38 256.91 65.44 256.94 65.51C256.94 65.52 256.95 65.54 256.95 65.55C257.05 66.17 256.46 66.81 255.76 66.57Z" fill="white"/>
<path d="M255.76 66.57L127.27 23.15C126.53 22.9 126.48 21.99 126.98 21.58C127.03 21.54 127.08 21.5 127.14 21.47C127.24 21.42 127.34 21.39 127.47 21.38C176.49 16.63 219.91 25.79 256.71 65.09C256.75 65.14 256.8 65.19 256.82 65.24C256.83 65.25 256.85 65.28 256.86 65.3C256.89 65.38 256.91 65.4401 256.94 65.5101C256.94 65.5201 256.95 65.54 256.95 65.55C257.05 66.17 256.46 66.8101 255.76 66.57Z" fill="#ED9B58"/>
<path d="M198.29 112.76C198.02 113.82 196.64 113.48 196.76 112.38C197.85 102.32 198.53 95.34 198.97 79.64C199.62 63.11 197.48 46.76 195.88 30.3C195.79 29.39 196.93 29.1 197.18 29.97C206.18 61.15 202.21 97.56 198.3 112.76H198.29Z" fill="#CC9558"/>
<path d="M135.69 121.81C148.42 119.97 161.15 120.66 173.3 118.52C187.84 116.27 195.39 108.14 208.01 101.43C224.86 92.26 244.97 91.34 263.25 96.31C266.78 97.27 266.95 102.23 263.5 103.45C252.05 107.51 240.19 111.64 230.69 117.92C227.85 119.76 225.28 121.76 222.69 123.95C218.61 127.44 214.05 131.92 209.41 135.6C205.6 138.62 201.27 141.48 196.75 143.64C185.72 149.04 172.43 150.91 160.47 149.89C152.29 149.3 145.17 147.85 137.5 147.13C130.33 146.43 123.33 146.53 116 147.32C111.4 147.79 106.84 148.52 102.22 149.29C98.59 149.89 96.3801 145.46 99.0301 142.9C108.19 134.05 122.17 123.75 135.69 121.8V121.81Z" fill="white"/>
<path d="M12.01 290.38C12.01 294.36 12.86 295.27 15.27 295.27H17.16V269.57H26.68C28.38 269.57 29.16 270.29 29.16 271.59V295.27H34.31V269.57H43.83C45.53 269.57 46.31 270.29 46.31 271.59V304.4H11.74C3.71999 304.4 0 300.55 0 292.14V270.09C2.35 269.5 5.09 269.11 8.81 269.11C10.9 269.11 12.01 270.02 12.01 271.72V290.37V290.38Z" fill="#3D8393"/>
<path d="M51.8 287.12C51.8 276.16 59.8201 268.79 70.1301 268.79C79.7801 268.79 85.5901 274.4 85.5901 282.16C85.5901 284.18 85.13 286.33 84.16 288.1C83.12 289.99 81.62 290.58 78.55 290.58H64.0701C64.9801 294.62 68.2401 296.71 72.8101 296.71C75.8801 296.71 78.8801 296.06 80.7701 294.95C81.5501 296.12 82.3401 298.21 82.3401 299.52C82.3401 301.54 77.6401 305.19 70.0101 305.19C59.1801 305.19 51.8101 297.36 51.8101 287.12H51.8ZM63.8701 283.99H73.7801C74.1101 283.4 74.3 282.49 74.3 281.51C74.3 278.84 72.6701 277.27 70.3201 277.27C66.6701 277.27 64.32 279.88 63.86 283.99H63.8701Z" fill="#3D8393"/>
<path d="M99.9301 290.97C98.5001 290.97 97.8401 290.25 97.8401 288.3C97.8401 286.67 98.1001 284.58 98.5601 283.15H100.78C104.3 283.15 106 281.85 106 279.82C106 278.65 105.02 277.28 102.67 277.28C100.13 277.28 98.69 278.72 97.97 280.93C95.49 280.8 93.0101 280.21 91.1201 278.97C90.0801 278.32 89.55 277.53 89.55 276.56C89.55 275.78 89.8801 275.06 90.3301 274.34C92.6801 270.82 97.96 268.79 104.16 268.79C112.51 268.79 117.92 273.16 117.92 278.64C117.92 282.23 115.9 284.97 112.64 286.47C116.29 287.71 118.84 290.45 118.84 294.23C118.84 300.62 113.03 305.19 103.97 305.19C95.82 305.19 90.0101 301.67 90.0101 299.06C90.0101 297.76 90.7901 295.67 91.5801 294.49C94.3801 295.92 97.5801 296.71 100.84 296.71C105.08 296.71 106.84 295.6 106.84 293.71C106.84 291.82 104.82 290.97 100.9 290.97H99.92H99.9301Z" fill="#3D8393"/>
<path d="M157.53 269.58C159.23 269.58 160.01 270.3 160.01 271.6V304.41H150.49C148.79 304.41 148.01 303.69 148.01 302.39V278.71H141.75C141.62 282.88 141.36 287.97 140.77 292.02C139.53 300.96 136.14 305.2 129.29 305.2C124.59 305.2 120.62 302.66 120.62 300.24C120.62 298.54 121.34 296.52 122.12 295.35C122.97 295.81 124.08 296.07 125.25 296.07C127.6 296.07 128.84 294.7 129.42 289.42C130.07 283.22 130.33 276.05 130.4 269.59H157.53V269.58Z" fill="#3D8393"/>
<path d="M202.27 286.99C202.27 298.6 193.53 305.19 183.88 305.19C174.23 305.19 165.49 298.6 165.49 286.99C165.49 275.38 174.23 268.79 183.88 268.79C193.53 268.79 202.27 275.38 202.27 286.99ZM190.27 287.32C190.27 281.45 187.73 277.93 183.62 277.93C179.9 277.93 177.49 280.86 177.49 286.67C177.49 292.48 180.03 296.06 184.14 296.06C187.86 296.06 190.27 293.12 190.27 287.32Z" fill="#3D8393"/>
<path d="M219.75 304.41H210.23C208.53 304.41 207.75 303.69 207.75 302.39V270.1C210.1 269.51 212.84 269.12 216.56 269.12C218.65 269.12 219.76 270.03 219.76 271.73V281.84H227.65V269.58H237.17C238.87 269.58 239.65 270.3 239.65 271.6V304.41H230.13C228.43 304.41 227.65 303.69 227.65 302.39V290.98H219.76V304.42H219.75V304.41Z" fill="#3D8393"/>
<path d="M258.69 304.41H249.17C247.47 304.41 246.69 303.69 246.69 302.39V269.58H270.63C271.93 269.58 272.65 270.36 272.65 272.06V278.71H258.69V304.41Z" fill="#3D8393"/>
<path d="M275.19 287.12C275.19 276.16 283.21 268.79 293.52 268.79C303.17 268.79 308.98 274.4 308.98 282.16C308.98 284.18 308.52 286.33 307.55 288.1C306.51 289.99 305.01 290.58 301.94 290.58H287.46C288.37 294.62 291.63 296.71 296.2 296.71C299.27 296.71 302.27 296.06 304.16 294.95C304.94 296.12 305.73 298.21 305.73 299.52C305.73 301.54 301.03 305.19 293.4 305.19C282.57 305.19 275.2 297.36 275.2 287.12H275.19ZM287.26 283.99H297.17C297.5 283.4 297.69 282.49 297.69 281.51C297.69 278.84 296.06 277.27 293.71 277.27C290.06 277.27 287.71 279.88 287.25 283.99H287.26Z" fill="#3D8393"/>
<path d="M326.2 318.3H316.68C314.98 318.3 314.2 317.58 314.2 316.28V270.1C316.55 269.51 319.29 269.12 323.01 269.12C325.1 269.12 326.21 270.03 326.21 271.73V273.82C328.56 270.49 331.69 268.8 335.73 268.8C343.82 268.8 350.01 275.32 350.01 285.5C350.01 297.96 342.18 305.2 334.03 305.2C330.57 305.2 327.96 304.03 326.2 302.14V318.32V318.3ZM326.2 294.56C327.31 295.54 328.68 296.06 330.51 296.06C334.88 296.06 338.01 291.75 338.01 285.75C338.01 280.53 336.12 277.92 332.4 277.92C329.86 277.92 327.44 279.75 326.2 282.88V294.56Z" fill="#3D8393"/>
<defs>
<radialGradient id="paint0_radial_1_157" cx="0" cy="0" r="1" gradientUnits="userSpaceOnUse" gradientTransform="translate(152.75 79.8) scale(95.53 95.53)">
<stop stop-color="#8FE1E5"/>
<stop offset="0.25" stop-color="#8BDEE3"/>
<stop offset="0.46" stop-color="#81D8DE"/>
<stop offset="0.65" stop-color="#6FCDD5"/>
<stop offset="0.84" stop-color="#56BDC9"/>
<stop offset="1" stop-color="#3CADBC"/>
</radialGradient>
<linearGradient id="paint1_linear_1_157" x1="78.34" y1="132.05" x2="269.38" y2="132.05" gradientUnits="userSpaceOnUse">
<stop stop-color="#42C0D1"/>
<stop offset="0.5" stop-color="#41BECF"/>
<stop offset="0.7" stop-color="#3EB7C7"/>
<stop offset="0.85" stop-color="#3AACBB"/>
<stop offset="0.97" stop-color="#349CAA"/>
<stop offset="1" stop-color="#3296A4"/>
</linearGradient>
<linearGradient id="paint2_linear_1_157" x1="95.1799" y1="145.47" x2="269.73" y2="145.47" gradientUnits="userSpaceOnUse">
<stop stop-color="#FFD64F"/>
<stop offset="0.5" stop-color="#FDD44D"/>
<stop offset="0.7" stop-color="#F5CD47"/>
<stop offset="0.84" stop-color="#E9C23E"/>
<stop offset="0.96" stop-color="#D8B230"/>
<stop offset="1" stop-color="#D1AB2B"/>
</linearGradient>
</defs>
</svg>
