<svg width="1694" height="6305" viewBox="0 0 1694 6305" fill="none" xmlns="http://www.w3.org/2000/svg">
<path d="M457.001 18C533.387 132.066 613.435 244.508 676.182 367.013C769.793 549.777 823.16 740.424 856.037 942.724C892.766 1168.72 908.988 1400.15 913.001 1628.89C917.219 1869.27 905.319 2105.81 780.278 2318.24C713.824 2431.14 559.052 2614.93 410.446 2509.96C322.897 2448.11 337.505 2274.1 414.784 2209.23C609.041 2046.18 811.068 2262.99 908.086 2425.52C1024.61 2620.74 1085.91 2847 1168.33 3057.62C1255.93 3281.5 1308.14 3510.2 1345.29 3747.84C1376.64 3948.35 1413.33 4179.25 1357.72 4379.07C1345 4424.8 1325.59 4468.36 1294.4 4504.56C1282.64 4518.21 1252.95 4547.97 1248.13 4510.92C1235.9 4416.75 1300.47 4289.93 1382.88 4243.16C1505.12 4173.8 1605.35 4350.04 1633.87 4440.37C1704.32 4663.45 1660.79 4953.37 1549.44 5155.74C1476.2 5288.85 1363.67 5392.14 1250.45 5490.59C1097.03 5623.98 934.871 5750.6 771.604 5871.7C583.502 6011.21 383.333 6112.91 173.627 6214.35C127.586 6236.62 76.6907 6270.79 25 6279.41" stroke="white" stroke-width="50" stroke-linecap="round"/>
</svg>
